<svg xmlns="http://www.w3.org/2000/svg" width="122" height="74" viewBox="0 0 122 74" version="1.1"><path d="M 55.473 5.085 C 54.949 6.737, 54.282 7.037, 52.261 6.529 C 48.531 5.593, 42.881 11.153, 43.650 15.002 C 44.083 17.166, 43.768 17.827, 42.097 18.264 C 40.349 18.721, 40 19.583, 40 23.438 C 40 26.930, 40.429 28.221, 41.750 28.708 C 44.229 29.623, 45.002 31.128, 43.976 33.044 C 43.314 34.281, 43.924 35.503, 46.401 37.904 C 49.088 40.508, 50.218 40.983, 52.416 40.432 C 54.653 39.870, 55.221 40.130, 55.692 41.930 C 56.514 45.073, 62.356 44.516, 62.820 41.250 C 63.190 38.644, 65.119 38.376, 68.335 40.484 C 70.350 41.804, 70.851 41.793, 72.867 40.380 C 74.114 39.507, 74.913 38.215, 74.642 37.509 C 74.319 36.667, 74.776 36.390, 75.973 36.703 C 78.558 37.379, 82 35.277, 82 33.022 C 82 31.972, 81.100 30.483, 79.999 29.712 L 77.999 28.311 79.999 26.500 C 82.432 24.299, 82.527 22.670, 80.351 20.494 C 79.257 19.400, 77.995 19.088, 76.601 19.567 C 75.445 19.964, 70.904 20.561, 66.510 20.894 C 59.983 21.389, 58.458 21.821, 58.186 23.250 C 57.895 24.782, 58.728 25, 64.880 25 C 71.635 25, 77 26.399, 77 28.161 C 77 29.343, 73.247 29.209, 72.500 28 C 72.160 27.450, 68.849 27, 65.141 27 C 58.194 27, 56 26, 56 22.835 C 56 20.215, 59.389 18.872, 65.796 18.953 C 78.832 19.117, 83.318 17.188, 81.119 12.361 C 80.167 10.273, 79.397 9.862, 77.075 10.202 C 75.148 10.485, 74.356 10.235, 74.661 9.441 C 75.203 8.029, 72.399 5, 70.551 5 C 69.833 5, 68.685 5.675, 68 6.500 C 65.948 8.972, 63 8.382, 63 5.500 C 63 3.319, 62.562 3, 59.567 3 C 56.967 3, 55.974 3.505, 55.473 5.085 M 62.638 12.500 C 62.322 13.325, 60.903 14, 59.486 14 C 56.406 14, 52.344 17.780, 51.406 21.519 C 50.408 25.496, 53.126 30.421, 57.158 31.941 C 58.996 32.635, 61.513 33.682, 62.750 34.270 C 64.409 35.057, 65.626 35.003, 67.381 34.064 C 68.696 33.360, 70.822 33.084, 72.131 33.447 C 74.420 34.081, 74.434 34.051, 72.559 32.552 C 71.230 31.489, 68.457 31, 63.763 31 C 57.738 31, 56.599 30.690, 54.343 28.434 C 52.273 26.364, 51.895 25.252, 52.391 22.684 C 53.371 17.611, 56.178 16, 64.039 16 C 68.904 16, 71.307 15.550, 72.429 14.429 C 74.571 12.286, 74.404 11.731, 72.056 13.197 C 70.463 14.192, 69.771 14.103, 68.227 12.706 C 65.900 10.599, 63.403 10.507, 62.638 12.500 M 19.421 51.346 C 19.144 52.068, 19.048 56.673, 19.209 61.579 L 19.500 70.500 26 70.500 C 31.111 70.500, 32.500 70.179, 32.500 69 C 32.500 67.920, 31.170 67.415, 27.750 67.195 L 23 66.890 23 59.052 C 23 52.922, 22.665 51.085, 21.462 50.624 C 20.616 50.299, 19.698 50.624, 19.421 51.346 M 32.631 50.702 C 32.284 51.049, 32 54.573, 32 58.532 C 32 64.300, 32.412 66.254, 34.073 68.365 C 36.651 71.643, 42.546 71.997, 46.139 69.090 C 48.279 67.359, 48.500 66.398, 48.500 58.847 C 48.500 51.183, 48.339 50.513, 46.500 50.507 C 44.713 50.501, 44.469 51.261, 44.208 57.662 C 43.893 65.382, 42.579 67.636, 39.048 66.515 C 37.245 65.943, 37 65.041, 37 58.968 C 37 53.256, 36.679 51.899, 35.131 51.070 C 34.104 50.520, 32.979 50.355, 32.631 50.702 M 109.325 51.505 C 103.715 53.864, 104.673 61.234, 110.763 62.568 C 115.507 63.606, 116.178 63.968, 115.736 65.251 C 115.491 65.960, 114.050 66.379, 112.402 66.220 C 110.806 66.066, 108.508 65.841, 107.296 65.720 C 104.804 65.471, 103.584 62.375, 103.937 57.200 C 104.280 52.161, 102.684 51, 95.415 51 L 89.075 51 88.788 60.087 L 88.500 69.173 84.532 60.087 C 81.198 52.452, 80.199 51, 78.282 51 C 77.027 51, 76 51.527, 76 52.170 C 76 52.814, 74.583 56.414, 72.852 60.170 C 69.758 66.883, 69.638 67, 65.852 67 L 62 67 62 59 C 62 51.133, 61.958 51, 59.500 51 L 57 51 57 61 L 57 71 65.031 71 C 71.768 71, 73.167 70.718, 73.708 69.250 C 74.610 66.805, 76.014 66.033, 79.589 66.015 C 81.916 66.004, 82.958 66.612, 83.808 68.479 C 84.896 70.866, 85.254 70.949, 93.550 70.729 C 100.189 70.552, 102.438 70.124, 103.360 68.862 C 104.460 67.356, 104.746 67.376, 106.889 69.112 C 110.054 71.674, 116.384 71.616, 119 69 C 122.990 65.010, 120.870 60.850, 113.890 58.970 C 111.560 58.343, 110.035 57.386, 110.262 56.694 C 110.785 55.101, 115.784 54.575, 117.428 55.940 C 118.394 56.742, 119.085 56.602, 120.080 55.404 C 121.227 54.022, 121.145 53.579, 119.521 52.392 C 118.474 51.626, 117.141 50.966, 116.559 50.923 C 115.976 50.881, 114.793 50.708, 113.930 50.538 C 113.066 50.369, 110.994 50.804, 109.325 51.505 M 2.214 60.750 L 2.500 70.500 8.840 70.486 C 16.069 70.471, 18.640 68.539, 17.475 64 C 17.123 62.625, 16.886 59.764, 16.949 57.641 C 17.117 52.018, 15.798 51, 8.341 51 L 1.928 51 2.214 60.750 M 6 56.441 C 6 58.484, 7.716 59.288, 10.557 58.575 C 14.413 57.607, 13.643 55, 9.500 55 C 7.119 55, 6 55.461, 6 56.441 M 94 57 C 94 59.022, 95.526 59.503, 98.418 58.393 C 101.205 57.324, 100.233 55, 97 55 C 94.667 55, 94 55.444, 94 57 M 77.689 59.083 C 76.979 61.796, 77.285 62.302, 79.352 61.838 C 80.627 61.552, 80.663 61.133, 79.579 59.127 L 78.298 56.754 77.689 59.083 M 6 65.063 C 6 66.788, 6.532 67.075, 9.242 66.813 C 11.377 66.607, 12.597 65.903, 12.815 64.750 C 13.081 63.348, 12.436 63, 9.573 63 C 6.630 63, 6 63.364, 6 65.063 M 93.624 64.538 C 93.294 65.398, 93.662 66.317, 94.458 66.622 C 96.807 67.524, 99.455 66.592, 99.812 64.739 C 100.069 63.403, 99.460 63, 97.180 63 C 95.434 63, 93.971 63.632, 93.624 64.538" stroke="none" fill="#e6f2f2" fill-rule="evenodd"/></svg>